<?xml version="1.0" encoding="utf-8"?>
<!-- Generator: Adobe Illustrator 27.5.0, SVG Export Plug-In . SVG Version: 6.00 Build 0)  -->
<svg version="1.1" xmlns="http://www.w3.org/2000/svg" xmlns:xlink="http://www.w3.org/1999/xlink" x="0px" y="0px"
	 viewBox="0 0 500 500" style="enable-background:new 0 0 500 500;" xml:space="preserve">
<g id="Floor">
	<ellipse style="fill:#F5F5F5;" cx="250" cy="354.201" rx="223.323" ry="128.936"/>
</g>
<g id="Shadows">
	<path style="fill:#E0E0E0;" d="M337.891,311.839l75.215,43.423c1.931,1.115,4.31,1.115,6.241-0.001l41.851-24.18
		c1.242-0.717,1.24-2.51-0.002-3.225l-75.205-43.303c-1.925-1.109-4.295-1.11-6.222-0.003l-41.874,24.062
		C336.65,309.327,336.648,311.121,337.891,311.839z"/>
	<path style="fill:#E0E0E0;" d="M278.699,295.685L97.769,400.402c-3,1.736-6.695,1.755-9.712,0.048l-47.037-26.601
		c-2.15-1.216-2.164-4.309-0.025-5.544l180.654-104.32c2.987-1.725,6.661-1.749,9.669-0.063l47.343,26.524
		C280.701,291.588,280.721,294.515,278.699,295.685z"/>
	<ellipse style="fill:#E0E0E0;" cx="307.661" cy="372.109" rx="49.654" ry="28.668"/>
	<ellipse style="fill:#E0E0E0;" cx="415.048" cy="378.604" rx="17.314" ry="9.996"/>
</g>
<g id="Furniture">
	<g>
		<g>
			<polygon style="fill:#E6E6E6;" points="415.607,221.04 415.627,353.011 458.373,328.314 458.373,196.465 			"/>
			<polygon style="fill:#EBEBEB;" points="343.02,311.093 415.627,353.011 415.627,221.162 343.04,179.366 			"/>
			<polygon style="fill:#F5F5F5;" points="343.02,179.244 415.627,221.162 458.373,196.465 385.786,154.669 			"/>
		</g>
		<g>
			<g>
				<path style="fill:#FAFAFA;" d="M351.526,227.504l55.175,31.854c1.057,0.61,2.378-0.153,2.378-1.373v-27.959
					c0-1.4-0.747-2.693-1.96-3.391l-55.159-31.761c-1.057-0.608-2.376,0.154-2.376,1.373l-0.014,27.866
					C349.569,225.512,350.315,226.805,351.526,227.504z"/>
				<path style="fill:#E0E0E0;" d="M384.191,220.49c-0.186,0-0.373-0.047-0.545-0.146l-9.736-5.606
					c-0.523-0.301-0.703-0.97-0.401-1.493c0.302-0.524,0.971-0.704,1.493-0.402l9.736,5.606c0.523,0.301,0.703,0.97,0.401,1.493
					C384.938,220.294,384.569,220.49,384.191,220.49z"/>
			</g>
			<g>
				<path style="fill:#FAFAFA;" d="M351.526,266.576l55.175,31.854c1.057,0.61,2.378-0.152,2.378-1.373v-27.959
					c0-1.4-0.747-2.693-1.96-3.391l-55.159-31.761c-1.057-0.609-2.376,0.154-2.376,1.373l-0.014,27.866
					C349.569,264.583,350.315,265.876,351.526,266.576z"/>
				<path style="fill:#E0E0E0;" d="M384.191,259.561c-0.186,0-0.373-0.047-0.545-0.146l-9.736-5.606
					c-0.523-0.301-0.703-0.97-0.401-1.493c0.302-0.522,0.971-0.704,1.493-0.401l9.736,5.606c0.523,0.301,0.703,0.97,0.401,1.493
					C384.938,259.364,384.569,259.561,384.191,259.561z"/>
			</g>
			<g>
				<path style="fill:#FAFAFA;" d="M351.526,305.647l55.175,31.854c1.057,0.61,2.378-0.153,2.378-1.373v-27.959
					c0-1.4-0.747-2.693-1.96-3.391l-55.159-31.761c-1.057-0.608-2.376,0.154-2.376,1.373l-0.014,27.866
					C349.569,303.655,350.315,304.948,351.526,305.647z"/>
				<path style="fill:#E0E0E0;" d="M384.191,298.633c-0.186,0-0.373-0.047-0.545-0.147l-9.736-5.606
					c-0.523-0.301-0.703-0.97-0.401-1.493c0.302-0.522,0.971-0.703,1.493-0.401l9.736,5.606c0.523,0.301,0.703,0.97,0.401,1.493
					C384.938,298.435,384.569,298.633,384.191,298.633z"/>
			</g>
		</g>
	</g>
</g>
<g id="Pictures">
	<g>
		<polygon style="fill:#FAFAFA;" points="388.411,88.146 388.411,123.415 418.956,141.05 418.956,105.781 388.411,88.146 		"/>
		<path style="fill:#E0E0E0;" d="M391.718,90.055l27.237,15.726v31.451l-27.237-15.726V90.055 M390.065,87.191l-1.653,0.955v35.269
			l30.544,17.635l1.653-0.955v-35.269L390.065,87.191L390.065,87.191z"/>
		<path style="fill:#EBEBEB;" d="M390.065,91.01l27.238,15.726v31.451l-27.238-15.725V91.01 M388.411,88.146v35.269l30.544,17.635
			v-35.269L388.411,88.146L388.411,88.146z"/>
		<g>
			<polygon style="fill:#E0E0E0;" points="392.894,115.347 416.001,128.687 409.174,110.926 404.448,116.54 399.614,109.658 			"/>
			<path style="fill:#E0E0E0;" d="M400.91,104.266c0,1.344,0.944,2.979,2.108,3.651c1.164,0.672,2.108,0.127,2.108-1.217
				c0-1.344-0.944-2.979-2.108-3.651C401.853,102.378,400.91,102.922,400.91,104.266z"/>
		</g>
	</g>
	<g>
		<polygon style="fill:#FAFAFA;" points="428.105,130.845 428.105,158.942 452.438,172.99 452.438,144.893 428.105,130.845 		"/>
		<path style="fill:#E0E0E0;" d="M430.74,132.366l21.698,12.528v25.055l-21.698-12.528V132.366 M429.423,130.084l-1.317,0.76v28.097
			l24.333,14.049l1.317-0.76v-28.097L429.423,130.084L429.423,130.084z"/>
		<path style="fill:#EBEBEB;" d="M429.423,133.126l21.698,12.528v25.055l-21.698-12.528V133.126 M428.105,130.845v28.097
			l24.333,14.049v-28.097L428.105,130.845L428.105,130.845z"/>
		<g>
			<polygon style="fill:#E0E0E0;" points="431.677,152.514 450.085,163.142 444.646,148.992 440.881,153.465 437.03,147.982 			"/>
			<path style="fill:#E0E0E0;" d="M438.062,143.687c0,1.071,0.752,2.373,1.679,2.908c0.927,0.535,1.679,0.101,1.679-0.969
				s-0.752-2.373-1.679-2.908C438.814,142.182,438.062,142.616,438.062,143.687z"/>
		</g>
	</g>
</g>
<g id="Plant">
	<g>
		<g>
			<path style="fill:#BA68C8;" d="M416.07,353.121c0,0-10.638-10.388-4.584-27.79c3.393-9.753,14.635-16.915,21.039-17.589
				c0,0-3.474,4.003-5.003,8.437l-8.064,5.361l7.412-2.321l-1.579,6.345c0,0-6.895,4.169-7.915,5.078l7.432-1.942
				C424.808,328.7,424.238,346.663,416.07,353.121z"/>
			<path style="opacity:0.4;" d="M416.07,353.121c0,0-10.638-10.388-4.584-27.79c3.393-9.753,14.635-16.915,21.039-17.589
				c0,0-3.474,4.003-5.003,8.437l-8.064,5.361l7.412-2.321l-1.579,6.345c0,0-6.895,4.169-7.915,5.078l7.432-1.942
				C424.808,328.7,424.238,346.663,416.07,353.121z"/>
			<path style="fill:#FFFFFF;" d="M416.07,353.121c0,0-5.508-21.74,2.641-34.417C418.711,318.704,409.157,329.891,416.07,353.121z"
				/>
		</g>
		<path style="fill:#37474F;" d="M428.244,356.064l-13.016-0.163v-0.002l-0.067,0.001l-0.066-0.001v0.002l-13.016,0.163
			c0,0-0.144,16.035,4.794,22.56h0c1.364,1.735,4.561,2.952,8.288,2.952c3.734,0,6.935-1.222,8.295-2.961
			C428.388,372.085,428.244,356.064,428.244,356.064z"/>
		<path style="fill:#455A64;" d="M428.245,356.064c0,3.879-5.858,7.024-13.083,7.024c-7.226,0-13.083-3.145-13.083-7.024
			c0-3.879,5.857-7.024,13.083-7.024C422.387,349.04,428.245,352.185,428.245,356.064z"/>
		<g>
			<path style="fill:#263238;" d="M415.162,354.201c4.501,0,8.313,1.444,9.656,3.443c0.334-0.497,0.522-1.027,0.522-1.58
				c0-2.774-4.557-5.023-10.177-5.023s-10.177,2.249-10.177,5.023c0,0.553,0.187,1.083,0.521,1.58
				C406.849,355.645,410.661,354.201,415.162,354.201z"/>
			<g>
				<path style="fill:#E0E0E0;" d="M415.162,354.201c-4.501,0-8.313,1.444-9.656,3.443c1.343,1.999,5.155,3.443,9.656,3.443
					s8.313-1.444,9.656-3.443C423.475,355.645,419.663,354.201,415.162,354.201z"/>
			</g>
		</g>
		<g>
			<path style="fill:#BA68C8;" d="M415.322,358.512c0,0-5.042-0.196-9.367-6.892c-1.784-2.762-2.644-4.212-2.644-4.212l7.025-0.523
				l-7.87-1.967l-3.719-5.69l6.536-0.485c0,0-4.868-1.705-8.344-1.727c0,0-6.027-10.647-7.79-12.165c0,0,13.901,0.115,23.809,11.83
				C422.867,348.395,416.792,358.811,415.322,358.512z"/>
			<path style="fill:#FFFFFF;" d="M415.322,358.512c0,0,3.154-18.994-16.971-30.419
				C398.351,328.093,419.237,338.126,415.322,358.512z"/>
		</g>
		<g>
			<path style="fill:#BA68C8;" d="M415.322,358.512c0,0,4.568,0.298,9.1-5.336c1.869-2.324,2.782-3.552,2.782-3.552l-6.289-1.134
				l7.286-1.034l3.891-4.783l-5.851-1.053c0,0,4.553-1.08,7.691-0.773c0,0,6.44-9.039,8.174-10.242c0,0-12.553-1.205-22.595,8.431
				C409.467,348.674,413.967,358.644,415.322,358.512z"/>
			<path style="opacity:0.2;" d="M415.322,358.512c0,0,4.568,0.298,9.1-5.336c1.869-2.324,2.782-3.552,2.782-3.552l-6.289-1.134
				l7.286-1.034l3.891-4.783l-5.851-1.053c0,0,4.553-1.08,7.691-0.773c0,0,6.44-9.039,8.174-10.242c0,0-12.553-1.205-22.595,8.431
				C409.467,348.674,413.967,358.644,415.322,358.512z"/>
			<path style="fill:#FFFFFF;" d="M415.322,358.512c0,0-1.057-17.434,18.176-25.847C433.497,332.665,413.709,339.75,415.322,358.512
				z"/>
		</g>
	</g>
</g>
<g id="Envelope">
	<g>
		<path style="fill:#BA68C8;" d="M216.788,115.855L212.237,114c-0.15-0.069-0.302-0.129-0.457-0.186l-0.054-0.022l0.001,0.003
			c-1.574-0.561-3.389-0.495-5.04,0.458L50.59,204.376c-6.676,3.854-10.788,10.977-10.788,18.686v135.974
			c0,6.335,6.857,10.294,12.344,7.127l156.29-90.234c4.541-2.622,7.339-7.467,7.339-12.711V119.5c0-1.092-0.285-2.083-0.761-2.938
			L216.788,115.855z"/>
		<path style="opacity:0.3;" d="M216.788,115.855L212.237,114c-0.15-0.069-0.302-0.129-0.457-0.186l-0.054-0.022l0.001,0.003
			c-1.574-0.561-3.389-0.495-5.04,0.458L50.59,204.376c-6.676,3.854-10.788,10.977-10.788,18.686v135.974
			c0,6.335,6.857,10.294,12.344,7.127l156.29-90.234c4.541-2.622,7.339-7.467,7.339-12.711V119.5c0-1.092-0.285-2.083-0.761-2.938
			L216.788,115.855z"/>
		<path style="fill:#BA68C8;" d="M219.908,121.144v143.722c0,5.24-2.792,10.084-7.333,12.709L56.279,367.806
			c-5.479,3.167-12.344-0.792-12.344-7.125V224.709c0-3.792,1-7.438,2.802-10.625c0.009-0.015,0.017-0.03,0.026-0.046
			c1.365-2.416,3.429-4.363,5.832-5.751l161.428-93.195c1.177,0.031,2.312,0.406,3.26,1.073
			C218.835,117.217,219.908,118.998,219.908,121.144z"/>
		<path style="opacity:0.1;" d="M219.908,121.144v143.722c0,5.24-2.792,10.084-7.333,12.709L56.279,367.806
			c-5.479,3.167-12.344-0.792-12.344-7.125V224.709c0-3.792,1-7.438,2.802-10.625c0.009-0.015,0.017-0.03,0.026-0.046
			c1.365-2.416,3.429-4.363,5.832-5.751l161.428-93.195c1.177,0.031,2.312,0.406,3.26,1.073
			C218.835,117.217,219.908,118.998,219.908,121.144z"/>
		<path style="fill:#BA68C8;" d="M212.573,277.574l-156.29,90.234c-2.643,1.526-5.599,1.386-7.959,0.134l93.28-140.448
			l78.307,37.369C219.912,270.107,217.114,274.953,212.573,277.574z"/>
		<path style="opacity:0.2;" d="M212.573,277.574l-156.29,90.234c-2.643,1.526-5.599,1.386-7.959,0.134l93.28-140.448l78.307,37.369
			C219.912,270.107,217.114,274.953,212.573,277.574z"/>
		<path style="fill:#BA68C8;" d="M217.283,116.164l-63.737,133.301c-5.3,11.086-18.918,15.31-29.562,9.171l-77.247-44.553l0,0
			c1.32-2.343,3.244-4.288,5.573-5.632l161.712-93.36C215.199,115.123,216.335,115.498,217.283,116.164z"/>
	</g>
</g>
<g id="Letter">
	<g>
		<g>
			<path style="fill:#BA68C8;" d="M62.778,171.276l45.783-26.439v-32.763l-33.273,18.331c-7.717,4.251-12.51,12.365-12.51,21.175
				V171.276z"/>
			<path style="opacity:0.5;fill:#FFFFFF;" d="M62.778,171.276l45.783-26.439v-32.763l-33.273,18.331
				c-7.717,4.251-12.51,12.365-12.51,21.175V171.276z"/>
		</g>
		<path style="fill:#BA68C8;" d="M251.959,44.372l-4.145-2.394c-10.837-6.259-24.196-6.233-35.008,0.068l-130.93,76.301
			c-11.825,6.891-19.098,19.547-19.098,33.233c0-15.158,16.456-24.592,29.537-16.933l5.488,3.213
			c11.609,6.797,18.743,19.24,18.743,32.693v83.282v111.258l-8.92,22.663l16.762-10.202l0,0l134.818-78.228
			c9.732-5.647,15.722-16.048,15.722-27.299V84.161C274.926,67.748,266.172,52.581,251.959,44.372z"/>
		<path style="opacity:0.7;fill:#FFFFFF;" d="M251.959,44.372l-4.145-2.394c-10.837-6.259-24.196-6.233-35.008,0.068l-130.93,76.301
			c-11.825,6.891-19.098,19.547-19.098,33.233c0-15.158,16.456-24.592,29.537-16.933l5.488,3.213
			c11.609,6.797,18.743,19.24,18.743,32.693v83.282v111.258l-8.92,22.663l16.762-10.202l0,0l134.818-78.228
			c9.732-5.647,15.722-16.048,15.722-27.299V84.161C274.926,67.748,266.172,52.581,251.959,44.372z"/>
		<path style="fill:#BA68C8;" d="M68.206,370.077c0,0,9.39,13.737,24.484,18.284c16.229,4.888,23.855-5.866,23.855-20.14v-25.81
			L68.206,370.077z"/>
		<path style="opacity:0.5;fill:#FFFFFF;" d="M68.206,370.077c0,0,9.39,13.737,24.484,18.284
			c16.229,4.888,23.855-5.866,23.855-20.14v-25.81L68.206,370.077z"/>
		<g>
			<path style="fill:#FFFFFF;" d="M145.72,232.005c-0.511,0-1.009-0.265-1.282-0.74c-0.409-0.708-0.166-1.613,0.541-2.021
				l100.034-57.762c0.706-0.408,1.612-0.167,2.021,0.542c0.409,0.708,0.166,1.613-0.541,2.021l-100.034,57.762
				C146.226,231.941,145.972,232.005,145.72,232.005z"/>
			<path style="fill:#FFFFFF;" d="M145.72,254.148c-0.511,0-1.009-0.266-1.282-0.74c-0.409-0.708-0.166-1.613,0.541-2.021
				l100.034-57.762c0.706-0.408,1.612-0.168,2.021,0.542c0.409,0.708,0.166,1.613-0.541,2.021l-100.034,57.761
				C146.226,254.083,145.972,254.148,145.72,254.148z"/>
			<path style="fill:#FFFFFF;" d="M145.72,276.289c-0.511,0-1.009-0.266-1.282-0.74c-0.409-0.708-0.166-1.613,0.541-2.021
				l100.034-57.762c0.706-0.408,1.612-0.168,2.021,0.542c0.409,0.708,0.166,1.613-0.541,2.021L146.459,276.09
				C146.226,276.225,145.972,276.289,145.72,276.289z"/>
			<path style="fill:#FFFFFF;" d="M145.72,298.432c-0.511,0-1.009-0.266-1.282-0.74c-0.409-0.708-0.166-1.613,0.541-2.022
				l100.034-57.763c0.706-0.407,1.612-0.168,2.021,0.542c0.409,0.707,0.166,1.613-0.541,2.021l-100.034,57.762
				C146.226,298.367,145.972,298.432,145.72,298.432z"/>
			<path style="fill:#FFFFFF;" d="M145.72,320.573c-0.511,0-1.009-0.266-1.282-0.74c-0.409-0.708-0.166-1.613,0.541-2.022
				l100.034-57.762c0.706-0.408,1.612-0.168,2.021,0.541c0.409,0.708,0.166,1.613-0.541,2.022l-100.034,57.762
				C146.226,320.509,145.972,320.573,145.72,320.573z"/>
			<path style="fill:#FFFFFF;" d="M211.391,304.795c-0.511,0-1.009-0.266-1.282-0.74c-0.409-0.708-0.166-1.613,0.541-2.021
				l34.363-19.842c0.706-0.409,1.612-0.168,2.021,0.541c0.409,0.708,0.166,1.613-0.541,2.022l-34.363,19.842
				C211.896,304.73,211.643,304.795,211.391,304.795z"/>
		</g>
		<g>
			<path style="fill:#BA68C8;" d="M215.356,148.641l-28.815,16.636v-14.197c0-9.873,6.003-21.342,13.408-25.618l2-1.154
				c7.405-4.275,13.408,0.263,13.408,10.136V148.641z"/>
			<polygon style="fill:#BA68C8;" points="222.066,153.353 179.832,177.737 186.542,162.198 215.356,145.562 			"/>
			<path style="fill:#BA68C8;" d="M200.949,129.573c-1.246,0.719-2.255,0.136-2.255-1.302v-5.535c0-1.439,1.01-3.187,2.255-3.906
				c1.246-0.719,2.255-0.136,2.255,1.302v5.535C203.204,127.105,202.195,128.854,200.949,129.573z"/>
			<path style="fill:#BA68C8;" d="M196.148,170.4c0.125,2.869,2.223,3.999,4.801,2.511c2.576-1.488,4.662-5.035,4.789-8.047
				L196.148,170.4z"/>
		</g>
	</g>
</g>
<g id="Speech_bubble">
	<g>
		
			<ellipse transform="matrix(0.9732 -0.2298 0.2298 0.9732 -15.2087 81.6489)" style="fill:#BA68C8;" cx="343.02" cy="106.135" rx="21.03" ry="21.03"/>
		<path style="fill:#BA68C8;" d="M339.27,122.483c0,0,1.883,6.68-5.729,12.875c0,0,11.718-1.176,12.354-12.319L339.27,122.483z"/>
		<g>
			<path style="fill:#FFFFFF;" d="M345.09,108.068h-4.518l-1.13-10.844h6.777L345.09,108.068z M342.831,115.046
				c-1.958,0-3.314-1.355-3.314-3.012c0-1.682,1.356-2.962,3.314-2.962c1.958,0,3.313,1.28,3.313,2.962
				C346.144,113.691,344.789,115.046,342.831,115.046z"/>
		</g>
	</g>
</g>
<g id="Character">
	<g>
		<path style="fill:#FFA8A7;" d="M301.503,187.424c0,0-6.955-0.84-11.404,5.011c-4.449,5.851-13.869,19.72-13.869,19.72
			s-3.941-4.373-6.521-7.441c-2.58-3.069-4.964-5.669-4.964-5.669s-0.542-2.6-0.758-4.984c-0.217-2.384-0.542-4.009-2.275-5.634
			c-1.734-1.625-3.072-3.154-3.216-4.394c-0.143-1.24-1.008-2.485-2.092-1.212c-1.085,1.272-0.976,5.173,1.299,7.773
			c0,0-4.117-1.914-5.959-4.153c-1.842-2.239-4.334-6.14-5.417-5.056c-1.084,1.084-3.142,12.707,0,15.293
			c3.142,2.585,10.943,7.027,10.943,7.027s10.185,24.921,17.336,24.921s18.964-18.42,18.964-18.42L301.503,187.424z"/>
		<path style="fill:#FFA8A7;" d="M288.785,317.525l2.235,33.805c0,0,2.032,3.576,5.851,3.576l3.494-3.819
			c0,0-0.163-6.664,1.138-13.49c1.3-6.826,3.819-16.821,4.551-22.591L288.785,317.525z"/>
		<path style="fill:#37474F;" d="M290.776,241.138c0,0-1.752,11.377-2.623,22.428c-0.695,8.821-1.146,21.059-1.3,25.639
			c-0.04,1.204-0.015,2.403,0.075,3.604l1.857,24.715c0,0,10.93,4.794,17.268-2.519c0,0,0.764-7.079-0.329-12.005
			c-0.686-3.094-0.539-6.315,0.226-9.39l6.848-27.525v-25.191L290.776,241.138z"/>
		<path style="fill:#263238;" d="M296.094,250.569c0,0,1.021,6.334,8.172,8.447l4.096,24.9l5.991-21.812v-11.535H296.094z"/>
		<path style="fill:#FFA8A7;" d="M317.349,322.563l6.907,38.112h7.476c0,0,2.832-32.111,2.682-40.875L317.349,322.563z"/>
		<path style="fill:#37474F;" d="M294.271,240.894c0,0-1.463,14.708,11.702,16.009l6.826,43.811l4.551,21.849
			c0,0,10.662,6.952,17.065-2.763c0,0,0.648-11.016-1.991-18.582c-0.689-1.976-0.987-4.054-0.843-6.142
			c0.741-10.735,2.785-42.241,1.778-49.225l-6.582-8.614L294.271,240.894z"/>
		<path style="fill:#BA68C8;" d="M318.234,189.005h6.673l4.469,22.31l-2.938,9.549c-0.605,1.967-0.468,4.09,0.401,5.955
			c2.033,4.364,5.706,12.88,6.519,19.033c0,0-5.688,0.813-9.508-4.794c0,0-5.607,7.395-19.259,7.395
			c-6.622,0-12.027-4.876-13.815-7.313l2.457-11.058c0.2-0.9,0.275-1.816,0.22-2.736c-0.136-2.293-0.38-7.024-0.321-10.585
			c0,0-6.338-2.519-4.713-10.32c1.625-7.801,13.083-19.015,13.083-19.015l4.906,0.186L318.234,189.005z"/>
		<g>
			<path style="fill:#455A64;" d="M302.116,145.948c0,0-8.096-2.81-10.071,5.482c-1.975,8.292,4.115,16.341-5.037,19.096
				c0,0,5.379,4.48,10.121-3.887l4.039,17.025c0,0-0.015,0.928-1.416,1.639c0,0,23.034,5.118,27.433-6.368
				c0,0,2.069,1.979,1.006,5.046c0,0,6.789-2.752,4.882-11.539c0,0,5.368-0.156,6.647-4.524c0,0-8.59,0.41-8.538-9.07
				c0.06-10.947-5.701-9.364-5.701-9.364S318.405,139.006,302.116,145.948z"/>
			<g>
				<path style="fill:#FFA8A7;" d="M306.409,180.298v7.312c0,0-7.568,8.424-0.191,9.09c7.377,0.666,12.016-7.695,12.016-7.695
					v-15.463L306.409,180.298z"/>
				<path style="fill:#F28F8F;" d="M318.102,171.097l0.002,0.425c-2.635,10.394-9.484,12.658-11.695,13.187l-0.08-16.09
					l11.436-0.055L318.102,171.097z"/>
				<path style="fill:#FFA8A7;" d="M307.157,147.951c-4.366,0.358-13.447,3.552-13.581,15.061
					c-0.134,11.509,1.626,20.287,7.591,20.653c5.965,0.365,19.299-5.024,19.919-19.96
					C321.706,148.769,311.415,147.601,307.157,147.951z"/>
				<polygon style="fill:#F28F8F;" points="301.634,167.634 301.739,174.391 297.763,173.237 				"/>
				<path style="fill:#263238;" d="M307.574,167.453c0.011,0.76-0.597,1.385-1.357,1.396c-0.76,0.011-1.385-0.597-1.396-1.358
					c-0.011-0.76,0.597-1.385,1.357-1.396C306.938,166.085,307.563,166.693,307.574,167.453z"/>
				<path style="fill:#263238;" d="M298.505,166.62c0.011,0.76-0.597,1.385-1.357,1.396c-0.76,0.011-1.385-0.597-1.396-1.358
					c-0.011-0.76,0.597-1.385,1.357-1.396C297.869,165.252,298.494,165.86,298.505,166.62z"/>
				<path style="fill:#F28F8F;" d="M305.352,176.578c0,0-1.377,0.302-4.423,1.397c0,0-0.41-2.344,1.545-2.882
					C304.429,174.554,305.352,176.578,305.352,176.578z"/>
				<path style="fill:#263238;" d="M297.995,161.525l-2.669,1.637c0,0,1.048,1.059,2.068,0.4
					C298.413,162.902,297.995,161.525,297.995,161.525z"/>
				<path style="fill:#455A64;" d="M314.18,167.414c0,0-0.097,4.26,2.694,4.26h5.466v-9.236c0-10.358-7.858-21.178-24.577-12.623
					C297.763,149.815,296.779,164.227,314.18,167.414z"/>
				<g>
					<path style="fill:#BA68C8;" d="M295.751,171.443c-2.604,0-4.723-1.808-4.723-4.029c0-2.221,2.119-4.028,4.723-4.028
						c2.603,0,4.723,1.807,4.723,4.028C300.474,169.635,298.354,171.443,295.751,171.443z M295.751,164.206
						c-2.151,0-3.902,1.439-3.902,3.208c0,1.769,1.751,3.209,3.902,3.209c2.151,0,3.902-1.439,3.902-3.209
						C299.653,165.645,297.902,164.206,295.751,164.206z"/>
					<path style="fill:#BA68C8;" d="M307.363,171.468c-2.917,0-5.289-1.818-5.289-4.054c0-2.235,2.372-4.053,5.289-4.053
						c2.916,0,5.288,1.818,5.288,4.053C312.651,169.649,310.279,171.468,307.363,171.468z M307.363,164.231
						c-2.437,0-4.42,1.428-4.42,3.183c0,1.755,1.983,3.184,4.42,3.184c2.436,0,4.419-1.428,4.419-3.184
						C311.782,165.659,309.8,164.231,307.363,164.231z"/>
					<rect x="300.064" y="166.979" style="fill:#BA68C8;" width="2.445" height="0.87"/>
					<rect x="312.217" y="166.979" style="fill:#BA68C8;" width="6.324" height="0.87"/>
				</g>
				<path style="fill:#FFA8A7;" d="M316.846,171.109c-0.018-1.054,0.162-2.111,0.603-3.068c0.495-1.073,1.36-2.152,2.842-2.178
					c3.255-0.056,3.662,3.081,3.606,4.196c-0.146,2.927-2.548,6.067-6.963,6.143L316.846,171.109z"/>
			</g>
		</g>
		<g>
			<path style="fill:#FFA8A7;" d="M324.907,189.005c0,0-7.612,18.22,4.469,22.31l2.655-5.661c0,0,22.118-20.261,27.528-24.704
				c5.41-4.442-1.525-11.013-8.242-17.154c-6.718-6.141-13.435-12.101-13.435-12.101l-3.365-5.945
				c-0.744-1.315-2.014-2.249-3.494-2.557c-3.52-0.734-10.154-1.982-13.728-1.792c-5.018,0.267,2.544,6.499,3.818,6.5
				c1.274,0.001,4.091,0.651,5.608,3.36c1.517,2.709,1.788,7.585,6.637,7.368l11.241,16.794L324.907,189.005z"/>
			<polygon style="fill:#F28F8F;" points="344.599,175.424 348.5,180.408 342.417,176.929 			"/>
		</g>
		<polygon style="fill:#F28F8F;" points="276.23,212.154 279.698,216.163 277.687,210.02 		"/>
		<path style="opacity:0.2;" d="M306.197,217.133c0,0,10.015,0.804,13.103-8.689C319.299,208.444,319.423,220.546,306.197,217.133z"
			/>
		<path style="fill:#BA68C8;" d="M290.045,352.792c0,0-1.389-4.361,0.768-4.591c2.157-0.23,5.949,0.907,6.329,2.045
			c0.379,1.138,0.278,2.33,0.278,2.33s2.052-0.704,2.946-1.49v-1.606c0,0,2.248,0.225,2.411,1.904
			c0.163,1.679,0.205,3.727,0.271,5.634c0.134,3.864,0.704,6.447-3.684,7.585c-4.388,1.138-6.555,3.305-8.126,4.876
			c-1.571,1.571-5.255,4.876-11.864,3.955c-6.609-0.921-6.23-6.501-3.901-8.289c3.224-2.474,7.151-4.262,7.151-4.262
			L290.045,352.792z"/>
		<path style="fill:#FAFAFA;" d="M287.689,365.122c-0.195,0-0.386-0.107-0.483-0.292c-1.402-2.656-4.667-3.407-4.699-3.414
			c-0.295-0.065-0.481-0.357-0.416-0.651c0.063-0.295,0.351-0.483,0.649-0.417c0.154,0.033,3.789,0.858,5.433,3.973
			c0.141,0.267,0.039,0.598-0.229,0.738C287.862,365.102,287.775,365.122,287.689,365.122z"/>
		<path style="fill:#FAFAFA;" d="M290.221,362.424c-0.196,0-0.386-0.106-0.483-0.292c-1.402-2.657-4.666-3.408-4.698-3.415
			c-0.295-0.065-0.482-0.357-0.416-0.651c0.065-0.295,0.351-0.483,0.65-0.417c0.154,0.033,3.788,0.858,5.432,3.974
			c0.141,0.267,0.039,0.598-0.229,0.738C290.395,362.403,290.308,362.424,290.221,362.424z"/>
		<path style="fill:#FAFAFA;" d="M292.754,359.725c-0.195,0-0.386-0.106-0.483-0.292c-1.402-2.656-4.667-3.407-4.699-3.414
			c-0.295-0.065-0.481-0.357-0.416-0.651c0.064-0.294,0.351-0.485,0.649-0.417c0.154,0.033,3.789,0.858,5.433,3.973
			c0.141,0.267,0.039,0.598-0.229,0.738C292.928,359.704,292.841,359.725,292.754,359.725z"/>
		<path style="fill:#BA68C8;" d="M324.257,360.675c0,0-0.488-3.355,3.007-3.344c3.494,0.012,6.013,0.103,5.688,2.699l0.028,1.864
			c0,0-0.028,9.264,0.703,12.271c0.731,3.007,2.415,12.491-4.725,13.884c-7.139,1.393-9.74-4.702-8.44-10.471
			c1.3-5.77,1.3-7.801,1.463-9.914c0.162-2.113-0.65-9.833,1.669-10.332L324.257,360.675z"/>
		<path style="fill:#FAFAFA;" d="M330.805,372.146c-0.091,0-0.185-0.023-0.27-0.072c-2.624-1.492-5.766-0.365-5.798-0.354
			c-0.28,0.107-0.598-0.04-0.701-0.324c-0.104-0.283,0.041-0.598,0.324-0.701c0.148-0.054,3.657-1.313,6.716,0.43
			c0.263,0.149,0.353,0.482,0.204,0.745C331.18,372.046,330.995,372.146,330.805,372.146z"/>
		<path style="fill:#FAFAFA;" d="M331.183,368.027c-0.091,0-0.185-0.023-0.27-0.072c-2.626-1.495-5.766-0.366-5.798-0.355
			c-0.279,0.106-0.598-0.04-0.701-0.324c-0.104-0.283,0.041-0.598,0.324-0.701c0.147-0.055,3.657-1.314,6.716,0.431
			c0.263,0.149,0.353,0.483,0.204,0.745C331.558,367.928,331.373,368.027,331.183,368.027z"/>
		<path style="fill:#FAFAFA;" d="M331.56,363.908c-0.091,0-0.184-0.023-0.27-0.072c-2.611-1.484-5.767-0.365-5.799-0.354
			c-0.284,0.105-0.597-0.044-0.7-0.326c-0.103-0.283,0.041-0.597,0.324-0.7c0.147-0.055,3.657-1.312,6.716,0.431
			c0.263,0.149,0.353,0.482,0.204,0.745C331.935,363.809,331.751,363.908,331.56,363.908z"/>
		<path style="fill:#FFFFFF;" d="M280.116,362.163c-1.365,0.751-3.085,1.785-4.644,2.981c-2.33,1.788-2.709,7.368,3.901,8.289
			c3.508,0.489,6.185-0.216,8.166-1.217C286.899,367.758,284.044,364.025,280.116,362.163z"/>
		<g>
			<path style="fill:#37474F;" d="M299.363,363.751c-4.388,1.138-6.555,3.305-8.126,4.876c-1.571,1.571-5.255,4.876-11.864,3.955
				c-3.703-0.516-5.211-2.495-5.412-4.449c-0.187,2.197,1.166,4.71,5.412,5.301c6.609,0.921,10.293-2.384,11.864-3.955
				c1.571-1.571,3.738-3.738,8.126-4.876c3.459-0.897,3.835-2.695,3.774-5.307C303.074,361.449,302.433,362.955,299.363,363.751z"/>
		</g>
		<path style="fill:#F5F5F5;" d="M334.293,377.812c-1.756-1.806-4.238-2.94-6.999-2.94c-2.643,0-5.037,1.035-6.777,2.709
			c-1.298,5.769,1.302,11.86,8.44,10.468C334.137,387.038,334.668,381.777,334.293,377.812z"/>
		<path style="fill:#455A64;" d="M328.958,386.917c-5.739,1.12-8.539-2.601-8.744-7.099c-0.243,4.982,2.529,9.443,8.744,8.231
			c4.607-0.899,5.534-5.161,5.419-8.882C334.268,382.577,333.103,386.108,328.958,386.917z"/>
	</g>
</g>
</svg>
