<svg id="Group_84441" data-name="Group 84441" xmlns="http://www.w3.org/2000/svg" xmlns:xlink="http://www.w3.org/1999/xlink" width="29.053" height="28.626" viewBox="0 0 29.053 28.626">
  <defs>
    <clipPath id="clip-path">
      <rect id="Rectangle_22048" data-name="Rectangle 22048" width="29.053" height="28.626" fill="#707070"/>
    </clipPath>
  </defs>
  <g id="Group_84441-2" data-name="Group 84441" clip-path="url(#clip-path)">
    <path id="Path_37599" data-name="Path 37599" d="M3.367,26.716a2.913,2.913,0,0,1-.43-5.529q-.63-3.041-1.257-6.066c-.162-.778-.335-1.554-.49-2.334A2.667,2.667,0,0,1,2.855,9.676c.057-.024.113-.052.2-.093l-.128-.653-.583.1a.557.557,0,0,1-.746-.5c-.252-1.165-.49-2.334-.733-3.5C.6,3.722.33,2.415.055,1.11-.094.4.031.207.741.078A4.481,4.481,0,0,1,5.992,3.5c.3,1.286.545,2.584.807,3.879.11.545-.035.745-.585.864-.137.03-.273.064-.444.1l.113.633A7.328,7.328,0,0,1,7,9.066,3.137,3.137,0,0,1,9.49,11.648c.167.764.316,1.532.475,2.3a2.226,2.226,0,0,0,.9,1.477A4.406,4.406,0,0,1,12.751,18.6c.246,1.411.573,2.808.871,4.239h.438q2.681,0,5.362,0a4.944,4.944,0,0,1,5.034,4.987c0,.63-.163.8-.792.8H4.065c-.5-.011-.663-.175-.671-.677-.006-.386,0-.771-.007-1.157a.508.508,0,0,0-.021-.075M12.5,22.835c-.326-1.562-.653-3.077-.955-4.6a2.779,2.779,0,0,0-1.185-1.817,3.559,3.559,0,0,1-1.482-2.3c-.167-.829-.327-1.66-.533-2.48a2.067,2.067,0,0,0-2.425-1.52q-1.188.236-2.37.5a1.571,1.571,0,0,0-1.286,1.974q.838,4.047,1.678,8.092c.04.2.107.3.337.326a2.891,2.891,0,0,1,2.332,1.619.394.394,0,0,0,.274.2c1.849.011,3.7.009,5.614.009M4.482,27.518H23.334c-.016-.161-.017-.3-.045-.437a3.818,3.818,0,0,0-3.9-3.155q-6.054-.011-12.108,0H6.916a2.893,2.893,0,0,1-2.03,2.687c-.343.1-.462.25-.406.582a2.122,2.122,0,0,1,0,.324M1.184,1.161l1.4,6.714,3.075-.641c-.205-.978-.39-1.92-.6-2.856a6.971,6.971,0,0,0-.423-1.431A3.237,3.237,0,0,0,1.184,1.161M2.229,23.876A1.794,1.794,0,0,0,4,25.684,1.818,1.818,0,0,0,5.8,23.9,1.785,1.785,0,0,0,4.02,22.1a1.759,1.759,0,0,0-1.791,1.775M4.141,9.36l.677-.133-.15-.667-.658.151.13.65" transform="translate(0 0)" fill="#707070"/>
    <path id="Path_37600" data-name="Path 37600" d="M119.705,51.277a6.316,6.316,0,1,1-6.345-6.35,6.32,6.32,0,0,1,6.345,6.35m-6.317-5.245a5.227,5.227,0,1,0,5.209,5.41,5.235,5.235,0,0,0-5.209-5.41" transform="translate(-96.036 -40.296)" fill="#707070"/>
    <path id="Path_37601" data-name="Path 37601" d="M237.2,139.5c-.219-.086-.354-.126-.476-.189q-1.429-.748-2.854-1.5c-.385-.2-.518-.507-.366-.8s.482-.367.868-.165c.987.516,1.97,1.038,2.955,1.557a.5.5,0,0,1,.3.665c-.076.18-.286.3-.425.441" transform="translate(-209.377 -122.627)" fill="#707070"/>
    <path id="Path_37602" data-name="Path 37602" d="M243.19,123.2c-.488,0-.976.007-1.464,0-.413-.008-.649-.216-.652-.55s.226-.553.642-.558q1.464-.017,2.928-.009a.559.559,0,0,1,.633.529c.015.34-.207.56-.624.574-.487.017-.976,0-1.464,0v.011" transform="translate(-216.225 -109.496)" fill="#707070"/>
    <path id="Path_37603" data-name="Path 37603" d="M226.8,149.989a2.353,2.353,0,0,1,.469.377c.577.818,1.139,1.646,1.7,2.477a.548.548,0,1,1-.895.619c-.578-.833-1.157-1.665-1.7-2.519a.762.762,0,0,1-.032-.6c.055-.143.277-.221.464-.355" transform="translate(-202.962 -134.529)" fill="#707070"/>
  </g>
</svg>
