<?xml version="1.0" encoding="UTF-8"?>
<svg version="1.1" xmlns="http://www.w3.org/2000/svg" width="227" height="210">
<path d="M0 0 C1.21623047 0.84691406 1.21623047 0.84691406 2.45703125 1.7109375 C3.26068115 2.26539551 3.26068115 2.26539551 4.08056641 2.83105469 C6.0154012 4.20341922 7.89243431 5.63567278 9.76953125 7.0859375 C11.18582333 8.16845901 12.60250191 9.250475 14.01953125 10.33203125 C14.7465625 10.88874512 15.47359375 11.44545898 16.22265625 12.01904297 C18.44897368 13.70483622 20.69753495 15.35510504 22.95703125 16.99609375 C23.67979248 17.52477051 24.40255371 18.05344727 25.1472168 18.59814453 C26.53190798 19.60962377 27.92121364 20.61482468 29.31567383 21.61279297 C29.94626709 22.0770166 30.57686035 22.54124023 31.2265625 23.01953125 C31.77932861 23.41970459 32.33209473 23.81987793 32.90161133 24.23217773 C35.97450696 27.15362317 37.33980349 29.73182768 37.84521484 33.953125 C37.85029053 35.75136719 37.85029053 35.75136719 37.85546875 37.5859375 C37.85933594 38.90078125 37.86320312 40.215625 37.8671875 41.5703125 C37.86090332 42.25029297 37.85461914 42.93027344 37.84814453 43.63085938 C37.8320765 45.70509642 37.84801857 47.77738546 37.8671875 49.8515625 C37.86332031 51.16640625 37.85945313 52.48125 37.85546875 53.8359375 C37.85208496 55.03476563 37.84870117 56.23359375 37.84521484 57.46875 C37.31874549 61.86592803 35.89054671 64.40932305 32.6262207 67.37329102 C31.947771 67.85725342 31.26932129 68.34121582 30.5703125 68.83984375 C29.42042847 69.67201416 29.42042847 69.67201416 28.24731445 70.52099609 C27.429646 71.09930176 26.61197754 71.67760742 25.76953125 72.2734375 C24.06068781 73.50580339 22.35236402 74.73889013 20.64453125 75.97265625 C19.35095703 76.90150635 19.35095703 76.90150635 18.03125 77.84912109 C14.07325357 80.71176153 10.17016367 83.64585866 6.26953125 86.5859375 C4.94271367 87.58334044 3.6158913 88.580737 2.2890625 89.578125 C1.35449219 90.28195313 0.41992188 90.98578125 -0.54296875 91.7109375 C-6.78550526 88.33769186 -12.24345912 84.32301511 -17.74975586 79.85961914 C-21.37457409 76.96219443 -24.7003929 74.50192861 -28.984375 72.6796875 C-33.70137827 70.48631646 -37.19231094 68.51758921 -39.54296875 63.7109375 C-40.79304536 57.64285727 -41.05674117 51.70530276 -41.10546875 45.5234375 C-41.13194992 44.31057571 -41.13194992 44.31057571 -41.15896606 43.07321167 C-41.31409896 30.05340003 -41.31409896 30.05340003 -37.54492188 25.06835938 C-34.98584692 22.99348781 -32.39407239 21.35666387 -29.54296875 19.7109375 C-27.91189512 18.51876979 -26.29420226 17.30804776 -24.69140625 16.078125 C-23.10183181 14.91191761 -21.51069134 13.74784168 -19.91796875 12.5859375 C-18.32137073 11.41699966 -16.72501417 10.24773195 -15.12890625 9.078125 C-14.3615918 8.52350586 -13.59427734 7.96888672 -12.80371094 7.39746094 C-11.28728251 6.26619878 -9.80280997 5.09089365 -8.35253906 3.87597656 C-3.21511815 -0.36546658 -3.21511815 -0.36546658 0 0 Z " fill="#747474" transform="translate(166.54296875,85.2890625)"/>
<path d="M0 0 C5.81981102 2.55920028 10.59353873 6.2773841 15.625 10.125 C17.40493635 11.47397359 19.18488424 12.82293196 20.96484375 14.171875 C21.8244873 14.82607422 22.68413086 15.48027344 23.56982422 16.15429688 C26.76245247 18.57907782 29.97362448 20.97850296 33.1875 23.375 C37.87845304 26.87845304 37.87845304 26.87845304 39 28 C39.46226541 32.98132753 39.61383889 37.96190259 39.73461914 42.96191406 C39.78612765 44.64054262 39.86096118 46.31863348 39.96020508 47.99511719 C40.7649539 61.8417324 40.7649539 61.8417324 36.65332031 66.86962891 C33.54787333 69.19344983 30.37466664 71.09256896 27 73 C25.12411696 74.39229574 23.2711871 75.81617756 21.4453125 77.2734375 C20.56359375 77.95277344 19.681875 78.63210937 18.7734375 79.33203125 C16.98178057 80.71409109 15.19278637 82.09960858 13.40625 83.48828125 C9.08508582 86.80882187 5.01321242 89.83257153 0 92 C-8.64157706 85.559073 -17.21910609 79.0354692 -25.7878418 72.49804688 C-26.662229 71.83095703 -27.53661621 71.16386719 -28.4375 70.4765625 C-29.21996094 69.87924316 -30.00242187 69.28192383 -30.80859375 68.66650391 C-32.96095035 66.97987694 -32.96095035 66.97987694 -35.22265625 65.59521484 C-37.57384019 63.48496266 -37.69732522 62.10942549 -38 59 C-38.08894709 57.18262629 -38.13060182 55.36251647 -38.1328125 53.54296875 C-38.13410156 52.51236328 -38.13539062 51.48175781 -38.13671875 50.41992188 C-38.13285156 49.35322266 -38.12898438 48.28652344 -38.125 47.1875 C-38.12886719 46.13240234 -38.13273437 45.07730469 -38.13671875 43.99023438 C-38.13298171 40.99125825 -38.07023151 37.99802378 -38 35 C-38.02151123 34.23792236 -38.04302246 33.47584473 -38.06518555 32.69067383 C-37.99715587 29.65916977 -37.49089768 27.53531005 -35.42675781 25.28442383 C-33.21654958 23.48079062 -30.93846914 21.89123089 -28.5625 20.3125 C-27.30022583 19.43053955 -27.30022583 19.43053955 -26.01245117 18.53076172 C-24.24832475 17.2983866 -22.47773787 16.07521366 -20.70117188 14.86083984 C-16.34747357 11.86157299 -12.08648538 8.73621947 -7.8125 5.625 C-6.29893077 4.53280894 -4.78467968 3.44156175 -3.26953125 2.3515625 C-2.63635986 1.89604004 -2.00318848 1.44051758 -1.35083008 0.97119141 C-0.90505615 0.65069824 -0.45928223 0.33020508 0 0 Z " fill="#747474" transform="translate(74,85)"/>
<path d="M0 0 C4.06622143 0.41922957 6.40980128 1.7443531 9.58984375 4.24609375 C10.45802734 4.91962891 11.32621094 5.59316406 12.22070312 6.28710938 C13.11724609 6.99673828 14.01378906 7.70636719 14.9375 8.4375 C16.69474321 9.81359098 18.45389548 11.18724723 20.21484375 12.55859375 C21.12137695 13.28570557 22.02791016 14.01281738 22.96191406 14.76196289 C25.2324385 16.43456796 27.31877763 17.77820466 29.76464844 19.12670898 C38.96813434 24.41358136 38.96813434 24.41358136 40.77157593 28.93399048 C41.78904494 33.52930417 41.73860798 38.07080661 41.49560547 42.75073242 C41.37445391 45.1985334 41.37247375 47.62578576 41.38671875 50.07617188 C41.25179617 61.03721207 41.25179617 61.03721207 38.45385742 65.42431641 C36.41060306 67.25958707 34.36347144 68.6058202 32 70 C30.45074859 71.15483948 28.91054578 72.32190216 27.37890625 73.5 C25.77615028 74.67039067 24.17065574 75.83703992 22.5625 77 C20.95873499 78.16542859 19.35586754 79.33209332 17.75390625 80.5 C16.96902832 81.0671875 16.18415039 81.634375 15.37548828 82.21875 C13.74037147 83.44483553 12.1408019 84.71931256 10.57373047 86.03125 C9.79529785 86.6809375 9.01686523 87.330625 8.21484375 88 C7.52382568 88.598125 6.83280762 89.19625 6.12084961 89.8125 C4 91 4 91 1.52783203 90.89257812 C-1.3439343 89.87855671 -3.26191391 88.59418694 -5.66015625 86.71875 C-6.96666138 85.70868896 -6.96666138 85.70868896 -8.29956055 84.67822266 C-9.66721558 83.60000244 -9.66721558 83.60000244 -11.0625 82.5 C-12.94503746 81.0387081 -14.82784856 79.57776866 -16.7109375 78.1171875 C-17.61811523 77.40916992 -18.52529297 76.70115234 -19.45996094 75.97167969 C-23.565758 72.78459615 -27.74212856 69.69610502 -31.91796875 66.6015625 C-35.92529295 63.51900542 -35.92529295 63.51900542 -36.48095703 59.65869141 C-38.75543836 29.0837409 -38.75543836 29.0837409 -33.09765625 22.4375 C-29.87859857 19.76331623 -26.25704114 17.98842138 -22.46582031 16.25634766 C-17.77341493 13.86554389 -13.73123426 10.50420576 -9.5625 7.3125 C-7.94107777 6.11799854 -6.31756109 4.92633184 -4.69140625 3.73828125 C-2.24486266 1.98649673 -2.24486266 1.98649673 0 0 Z " fill="#737373" transform="translate(118,10)"/>
<path d="M0 0 C0.66 0.33 1.32 0.66 2 1 C2.99 1.33 3.98 1.66 5 2 C5.66 2.66 6.32 3.32 7 4 C4.69 5.32 2.38 6.64 0 8 C-1.65 6.35 -3.3 4.7 -5 3 C-2.625 1.4375 -2.625 1.4375 0 0 Z " fill="#969696" transform="translate(74,169)"/>
<path d="M0 0 C2.46948242 0.98950195 2.46948242 0.98950195 5 3 C5.45487834 5.92119937 5.58565495 8.25513667 5.48828125 11.16796875 C5.48120651 11.96278152 5.47413177 12.7575943 5.46684265 13.57649231 C5.43885874 16.11445361 5.3761184 18.65020607 5.3125 21.1875 C5.28742205 22.90817125 5.26460799 24.6288771 5.24414062 26.34960938 C5.18901967 30.56725697 5.10272412 34.78325407 5 39 C4.67 39 4.34 39 4 39 C3.505 21.675 3.505 21.675 3 4 C2.01 3.67 1.02 3.34 0 3 C0 2.01 0 1.02 0 0 Z " fill="#8A8A8A" transform="translate(153,34)"/>
<path d="M0 0 C0.763125 0.20625 1.52625 0.4125 2.3125 0.625 C-0.44270215 3.58429119 -3.15377288 5.66181826 -6.6875 7.625 C-6.375 4.75 -6.375 4.75 -5.6875 1.625 C-2.6875 -0.375 -2.6875 -0.375 0 0 Z " fill="#949494" transform="translate(151.6875,75.375)"/>
<path d="M0 0 C0.66 0.33 1.32 0.66 2 1 C1.34 2.65 0.68 4.3 0 6 C-1.9375 5.625 -1.9375 5.625 -4 5 C-4.33 4.34 -4.66 3.68 -5 3 C-2.625 1.4375 -2.625 1.4375 0 0 Z " fill="#868686" transform="translate(74,169)"/>
<path d="M0 0 C-1.6454378 1.68762851 -3.31288577 3.3540349 -5 5 C-5.33 5 -5.66 5 -6 5 C-6 3.35 -6 1.7 -6 0 C-3 -1 -3 -1 0 0 Z " fill="#919292" transform="translate(144,83)"/>
<path d="" fill="#FFFFFF" transform="translate(0,0)"/>
<path d="" fill="#FFFFFF" transform="translate(0,0)"/>
<path d="" fill="#FFFFFF" transform="translate(0,0)"/>
<path d="" fill="#FFFFFF" transform="translate(0,0)"/>
<path d="" fill="#FFFFFF" transform="translate(0,0)"/>
<path d="" fill="#FFFFFF" transform="translate(0,0)"/>
<path d="" fill="#FFFFFF" transform="translate(0,0)"/>
<path d="" fill="#FFFFFF" transform="translate(0,0)"/>
<path d="" fill="#FFFFFF" transform="translate(0,0)"/>
<path d="" fill="#FFFFFF" transform="translate(0,0)"/>
<path d="" fill="#FFFFFF" transform="translate(0,0)"/>
<path d="" fill="#FFFFFF" transform="translate(0,0)"/>
<path d="" fill="#FFFFFF" transform="translate(0,0)"/>
<path d="" fill="#FFFFFF" transform="translate(0,0)"/>
<path d="" fill="#FFFFFF" transform="translate(0,0)"/>
<path d="" fill="#FFFFFF" transform="translate(0,0)"/>
<path d="" fill="#FFFFFF" transform="translate(0,0)"/>
<path d="" fill="#FFFFFF" transform="translate(0,0)"/>
<path d="" fill="#FFFFFF" transform="translate(0,0)"/>
<path d="" fill="#FFFFFF" transform="translate(0,0)"/>
<path d="" fill="#FFFFFF" transform="translate(0,0)"/>
<path d="" fill="#FFFFFF" transform="translate(0,0)"/>
<path d="" fill="#FFFFFF" transform="translate(0,0)"/>
<path d="" fill="#FFFFFF" transform="translate(0,0)"/>
<path d="" fill="#FFFFFF" transform="translate(0,0)"/>
<path d="" fill="#FFFFFF" transform="translate(0,0)"/>
<path d="" fill="#FFFFFF" transform="translate(0,0)"/>
<path d="" fill="#FFFFFF" transform="translate(0,0)"/>
<path d="" fill="#FFFFFF" transform="translate(0,0)"/>
<path d="" fill="#FFFFFF" transform="translate(0,0)"/>
<path d="" fill="#FFFFFF" transform="translate(0,0)"/>
<path d="" fill="#FFFFFF" transform="translate(0,0)"/>
<path d="" fill="#FFFFFF" transform="translate(0,0)"/>
<path d="" fill="#FFFFFF" transform="translate(0,0)"/>
<path d="" fill="#FFFFFF" transform="translate(0,0)"/>
<path d="" fill="#FFFFFF" transform="translate(0,0)"/>
<path d="" fill="#FFFFFF" transform="translate(0,0)"/>
<path d="" fill="#FFFFFF" transform="translate(0,0)"/>
<path d="" fill="#FFFFFF" transform="translate(0,0)"/>
<path d="" fill="#FFFFFF" transform="translate(0,0)"/>
<path d="" fill="#FFFFFF" transform="translate(0,0)"/>
<path d="" fill="#FFFFFF" transform="translate(0,0)"/>
<path d="" fill="#FFFFFF" transform="translate(0,0)"/>
<path d="" fill="#FFFFFF" transform="translate(0,0)"/>
<path d="" fill="#FFFFFF" transform="translate(0,0)"/>
<path d="" fill="#FFFFFF" transform="translate(0,0)"/>
<path d="" fill="#FFFFFF" transform="translate(0,0)"/>
<path d="" fill="#FFFFFF" transform="translate(0,0)"/>
<path d="" fill="#FFFFFF" transform="translate(0,0)"/>
<path d="" fill="#FFFFFF" transform="translate(0,0)"/>
<path d="" fill="#FFFFFF" transform="translate(0,0)"/>
<path d="" fill="#FFFFFF" transform="translate(0,0)"/>
</svg>
