<svg xmlns="http://www.w3.org/2000/svg" width="35.31" height="27.738" viewBox="0 0 35.31 27.738">
  <g id="noun_Engine_1772847" transform="translate(-20.07 -25.312)">
    <g id="Group_76875" data-name="Group 76875" transform="translate(20.07 25.312)">
      <path id="Path_29112" data-name="Path 29112" d="M54.953,25.312h-8.2A1.635,1.635,0,0,0,45,26.776a1.635,1.635,0,0,0,1.756,1.464h8.2a1.635,1.635,0,0,0,1.756-1.464,1.635,1.635,0,0,0-1.756-1.464Z" transform="translate(-30.404 -25.312)" fill="#707070"/>
      <path id="Path_29113" data-name="Path 29113" d="M47.546,34.446V45.863l-.007,2.626-.132.11-.108.134-3.965,4.9a2.5,2.5,0,0,1-1.5.717h-8.2a2.721,2.721,0,0,1-1.572-.723l-4.3-5-.043-.05-.047-.047a.141.141,0,0,1-.028-.034l-.011-.017,0-.022V42.936l.009-2.639.07-.095.056-.107,4.167-4.927a2.66,2.66,0,0,1,1.553-.721H47.546m0-1.756H33.495A4.321,4.321,0,0,0,30.6,34.031l-4.169,4.93a1.817,1.817,0,0,0-.211.31,1.755,1.755,0,0,0-.34,1.031v2.635H23V40.3a1.633,1.633,0,0,0-1.464-1.756A1.637,1.637,0,0,0,20.07,40.3v8.2a1.637,1.637,0,0,0,1.464,1.756A1.633,1.633,0,0,0,23,48.5V45.863h2.886V48.5a1.757,1.757,0,0,0,.023.252,1,1,0,0,0,.246.662,1.91,1.91,0,0,0,.287.363l4.3,5a4.384,4.384,0,0,0,2.9,1.335h8.2A4.179,4.179,0,0,0,44.7,54.738l3.964-4.9A1.747,1.747,0,0,0,49.3,48.5V45.863h3.15V48.5a1.488,1.488,0,1,0,2.927,0V40.3a1.488,1.488,0,1,0-2.927,0v2.635H49.3V34.446a1.762,1.762,0,0,0-1.756-1.756Z" transform="translate(-20.07 -28.37)" fill="#707070"/>
    </g>
  </g>
</svg>
