<svg id="Group_84437" data-name="Group 84437" xmlns="http://www.w3.org/2000/svg" xmlns:xlink="http://www.w3.org/1999/xlink" width="23.74" height="26.829" viewBox="0 0 23.74 26.829">
  <defs>
    <clipPath id="clip-path">
      <rect id="Rectangle_22043" data-name="Rectangle 22043" width="23.74" height="26.829" fill="#707070"/>
    </clipPath>
  </defs>
  <g id="Group_84436" data-name="Group 84436" clip-path="url(#clip-path)">
    <path id="Path_37589" data-name="Path 37589" d="M5.1,0h.472a3,3,0,0,1,.288.205c.3.271.325.6.1,1.091L7.276,2.6C7.826,2.075,8.4,1.538,8.959,1A3.407,3.407,0,0,1,10.4.138c.172-.049.346-.092.519-.138h8.594a.741.741,0,0,0,.144.05,4.6,4.6,0,0,1,4.081,4.641q0,8.723,0,17.446a5.037,5.037,0,0,1-.12,1.141,4.634,4.634,0,0,1-4.495,3.547q-7.164.009-14.329,0a4.788,4.788,0,0,1-.933-.106A4.565,4.565,0,0,1,.18,22.24q0-5.763,0-11.526A2.744,2.744,0,0,1,.54,9.261a5.337,5.337,0,0,1,.7-.9c.4-.42.836-.807,1.222-1.175L1.306,6.029A2.419,2.419,0,0,1,.6,6.1.778.778,0,0,1,.272,4.741q2.1-2.108,4.2-4.207C4.669.341,4.893.177,5.1,0M22.145,13.413c0-2.917.007-5.833-.008-8.75a3.43,3.43,0,0,0-.183-1.125,3.068,3.068,0,0,0-2.977-1.955c-2.532-.019-5.065-.008-7.6,0a1.713,1.713,0,0,0-1.22.46Q6.2,5.8,2.249,9.571a1.548,1.548,0,0,0-.5,1.169q0,5.763,0,11.526a2.769,2.769,0,0,0,.6,1.75,3.177,3.177,0,0,0,2.622,1.239c2.777.007,5.554,0,8.331,0,1.895,0,3.79.007,5.685,0a3.1,3.1,0,0,0,3.172-3.172c-.055-2.889-.015-5.78-.015-8.671M3.671,6.033,6.052,3.762,4.824,2.532,2.487,4.854,3.671,6.033" transform="translate(0)" fill="#707070"/>
    <path id="Path_37590" data-name="Path 37590" d="M97.918,157.738a3.276,3.276,0,0,1,.212-.263q2.267-2.271,4.538-4.538a.793.793,0,1,1,1.13,1.107q-.891.887-1.778,1.778l-2.8,2.8c-.067.067-.131.136-.207.216.073.078.136.148.2.215q2.268,2.269,4.532,4.543a1.141,1.141,0,0,1,.3.53.717.717,0,0,1-.4.8.76.76,0,0,1-.917-.136c-.384-.369-.755-.751-1.132-1.128l-3.537-3.538c-.049-.049-.1-.1-.171-.161-.072.067-.141.129-.207.195q-2.288,2.287-4.575,4.575a.794.794,0,0,1-.828.252.759.759,0,0,1-.558-.6.825.825,0,0,1,.29-.8q2.252-2.248,4.5-4.5a1.957,1.957,0,0,1,.277-.2l.012-.132a1.4,1.4,0,0,1-.266-.167q-2.273-2.264-4.54-4.536a.792.792,0,1,1,1.085-1.145q1.135,1.125,2.261,2.258l2.334,2.334c.061.061.125.12.239.229" transform="translate(-85.28 -141.966)" fill="#707070"/>
    <path id="Path_37591" data-name="Path 37591" d="M85.609,62.791q-2.96,0-5.921,0a.78.78,0,0,1-.782-.5.77.77,0,0,1,.211-.882l.037-.037q1.767-1.678,3.532-3.357a1.034,1.034,0,0,1,.756-.295c2.646,0,5.292,0,7.938,0a2.534,2.534,0,1,1,.123,5.066c-1.965.013-3.93,0-5.895,0Zm-3.984-1.586c.1.007.139.011.173.011q4.779,0,9.559,0a1.478,1.478,0,0,0,.336-.042.945.945,0,0,0,.04-1.822,1.982,1.982,0,0,0-.493-.044c-2.174,0-4.348.037-6.52-.022a2.185,2.185,0,0,0-1.912.777,15.95,15.95,0,0,1-1.183,1.143" transform="translate(-73.327 -53.677)" fill="#707070"/>
  </g>
</svg>
