<svg id="Group_84451" data-name="Group 84451" xmlns="http://www.w3.org/2000/svg" xmlns:xlink="http://www.w3.org/1999/xlink" width="25.894" height="18" viewBox="0 0 25.894 18">
  <defs>
    <clipPath id="clip-path">
      <rect id="Rectangle_22047" data-name="Rectangle 22047" width="25.894" height="18" fill="#707070"/>
    </clipPath>
  </defs>
  <g id="Group_84438" data-name="Group 84438" clip-path="url(#clip-path)">
    <path id="Path_37592" data-name="Path 37592" d="M.949,17.967C-.2,14.215-.583,10.493,1.408,6.889A12.713,12.713,0,0,1,11.547.089,12.914,12.914,0,0,1,25.282,8.875a12.238,12.238,0,0,1-.409,8.708.549.549,0,0,1-.588.417Q12.7,17.981,1.119,17.988a1.284,1.284,0,0,1-.17-.022m11.9-1.628c3.408,0,6.815-.008,10.223.011a.6.6,0,0,0,.7-.5,10.427,10.427,0,0,0,.418-5.019A11.638,11.638,0,0,0,10.93,1.676,11.407,11.407,0,0,0,1.937,15.764a.643.643,0,0,0,.743.587c3.388-.024,6.776-.013,10.164-.013" transform="translate(0 0)" fill="#707070"/>
    <path id="Path_37593" data-name="Path 37593" d="M107.766,53.349l-5.859,6.969-1.366-1.241,7.157-5.8.068.07" transform="translate(-88.663 -46.985)" fill="#707070"/>
    <path id="Path_37594" data-name="Path 37594" d="M88.772,89.543l2.409,2.163,1.725-2.237a2.1,2.1,0,0,1-.894,2.451,2.34,2.34,0,0,1-2.833-.167A2.259,2.259,0,0,1,91.088,87.8l-2.316,1.746" transform="translate(-77.908 -77.391)" fill="#707070"/>
    <rect id="Rectangle_22044" data-name="Rectangle 22044" width="2.318" height="1.075" transform="translate(20.466 12.296)" fill="#707070"/>
    <path id="Path_37595" data-name="Path 37595" d="M64.416,38.157,62.931,36.27l.9-.7,1.486,1.869-.9.721" transform="translate(-55.497 -31.365)" fill="#707070"/>
    <rect id="Rectangle_22045" data-name="Rectangle 22045" width="1.13" height="2.314" transform="translate(12.17 3.209)" fill="#707070"/>
    <path id="Path_37596" data-name="Path 37596" d="M134.468,34.582l.945.713-1.373,1.865-.948-.7,1.376-1.874" transform="translate(-117.37 -30.497)" fill="#707070"/>
    <path id="Path_37597" data-name="Path 37597" d="M159.142,64.526l1.985-1.25.638,1-1.957,1.237-.665-.983" transform="translate(-140.343 -55.801)" fill="#707070"/>
    <path id="Path_37598" data-name="Path 37598" d="M38.875,64.588l2.021,1.3-.64.934-2.019-1.295.638-.941" transform="translate(-33.72 -56.958)" fill="#707070"/>
    <rect id="Rectangle_22046" data-name="Rectangle 22046" width="2.37" height="1.014" transform="translate(3.188 12.359)" fill="#707070"/>
  </g>
</svg>
